<?xml version="1.0" encoding="utf-8"?>
<!-- Generator: Adobe Illustrator 24.2.1, SVG Export Plug-In . SVG Version: 6.00 Build 0)  -->
<svg version="1.1" id="Capa_1" xmlns="http://www.w3.org/2000/svg" xmlns:xlink="http://www.w3.org/1999/xlink" x="0px" y="0px"
	 viewBox="0 0 700 700" style="enable-background:new 0 0 700 700;" xml:space="preserve">
<style type="text/css">
	.st0{fill:#535353;}
</style>
<g>
	<path class="st0" d="M282.8,89.6c-7,0.2-12.6,4.5-15.1,9.3l-23.4,46.7H154c-27.6,0-50.4,22.8-50.4,50.4v224
		c0,27.6,22.8,50.4,50.4,50.4h392c27.6,0,50.4-22.8,50.4-50.4V196c0-27.6-22.8-50.4-50.4-50.4h-90.3l-23.4-46.7
		c-2.8-5.5-8.8-9.3-15.1-9.3H282.8z M293.3,123.2h113.4l23.4,46.7c2.8,5.5,8.8,9.3,15.1,9.3H546c9.6,0,16.8,7.2,16.8,16.8v224
		c0,9.6-7.2,16.8-16.8,16.8H154c-9.6,0-16.8-7.2-16.8-16.8V196c0-9.6,7.2-16.8,16.8-16.8h100.8c6.2,0,12.3-3.7,15.1-9.3L293.3,123.2
		z M350,196c-58.6,0-106.4,47.8-106.4,106.4c0,58.6,47.8,106.4,106.4,106.4S456.4,361,456.4,302.4C456.4,243.8,408.6,196,350,196z
		 M350,229.6c40.4,0,72.8,32.4,72.8,72.8s-32.4,72.8-72.8,72.8c-40.4,0-72.8-32.4-72.8-72.8S309.6,229.6,350,229.6L350,229.6z"/>
</g>
</svg>
