<?xml version="1.0" encoding="utf-8"?>
<!-- Generator: Adobe Illustrator 24.2.1, SVG Export Plug-In . SVG Version: 6.00 Build 0)  -->
<svg version="1.1" id="Capa_1" xmlns="http://www.w3.org/2000/svg" xmlns:xlink="http://www.w3.org/1999/xlink" x="0px" y="0px"
	 viewBox="0 0 700 700" style="enable-background:new 0 0 700 700;" xml:space="preserve">
<style type="text/css">
	.st0{fill:#FFFFFF;}
</style>
<path class="st0" d="M350,392c36.7,0,68,23.6,79.4,56.4l1.4-0.2l3.3-0.2h168c15.5,0,28,12.5,28,28c0,14.4-10.8,26.2-24.7,27.8
	L602,504H434c-1.6,0-3.1-0.1-4.6-0.4C418,536.4,386.7,560,350,560s-68-23.6-79.4-56.4l-1.4,0.2L266,504H98c-15.5,0-28-12.5-28-28
	c0-14.4,10.8-26.2,24.7-27.8L98,448h168c1.6,0,3.1,0.1,4.6,0.4C282,415.6,313.3,392,350,392L350,392z M350,448
	c-15.5,0-28,12.5-28,28s12.5,28,28,28s28-12.5,28-28S365.5,448,350,448z M154,196c36.7,0,68,23.6,79.4,56.4l1.4-0.2l3.3-0.2h364
	c15.5,0,28,12.5,28,28c0,14.4-10.8,26.2-24.7,27.8L602,308H238c-1.6,0-3.1-0.1-4.6-0.4C222,340.4,190.7,364,154,364
	c-46.4,0-84-37.6-84-84S107.6,196,154,196L154,196z M154,252c-15.5,0-28,12.5-28,28s12.5,28,28,28s28-12.5,28-28S169.5,252,154,252z
	 M462,0c36.7,0,68,23.6,79.4,56.4l1.4-0.2L546,56h56c15.5,0,28,12.5,28,28c0,14.4-10.8,26.2-24.7,27.8L602,112h-56
	c-1.6,0-3.1-0.1-4.6-0.4C530,144.4,498.7,168,462,168s-68-23.6-79.4-56.4l-1.4,0.2L378,112H98c-15.5,0-28-12.5-28-28
	c0-14.4,10.8-26.2,24.7-27.8L98,56h280c1.6,0,3.1,0.1,4.6,0.4C394,23.6,425.3,0,462,0L462,0z M462,56c-15.5,0-28,12.5-28,28
	s12.5,28,28,28s28-12.5,28-28S477.5,56,462,56z"/>
</svg>
