<?xml version="1.0" encoding="utf-8"?>
<!-- Generator: Adobe Illustrator 24.2.1, SVG Export Plug-In . SVG Version: 6.00 Build 0)  -->
<svg version="1.1" id="Capa_1" xmlns="http://www.w3.org/2000/svg" xmlns:xlink="http://www.w3.org/1999/xlink" x="0px" y="0px"
	 viewBox="0 0 700 700" style="enable-background:new 0 0 700 700;" xml:space="preserve">
<style type="text/css">
	.st0{fill:#FFFFFF;}
</style>
<path class="st0" d="M487.2,95.8c-14-14-35.3-15.1-47.6-2.2L189.3,343.8c-1.1,1.1-1.7,2.2-1.7,3.4L172.5,434c-0.6,1.7,0,3.4,1.7,5
	c1.1,1.1,2.2,1.7,3.9,1.7h1.1l86.2-15.1c1.1,0,2.2-0.6,2.8-1.7l250.3-250.3c6.2-6.2,9-14.6,9-23.5c-0.6-9-4.5-17.4-11.2-24.1
	L487.2,95.8z M184.8,427.8l12.3-72.2l59.4,59.4L184.8,427.8z M266.6,408.8l-27.4-28l191.5-191.5l-7.8-7.8L230.7,373.5l-27.4-28
	L394.8,154l63.3,63.3L266.6,408.8z M466.5,209.4l-63.8-63.3l15.7-15.7l63.3,63.3L466.5,209.4z M510.7,164.6L490,185.9l-63.3-63.8
	l20.7-20.7c8.4-8.4,22.4-7.3,31.9,2.2l29.1,29.1c4.5,4.5,7.3,10.6,7.8,16.8C516.9,155.7,514.6,160.7,510.7,164.6L510.7,164.6z"/>
</svg>
