<?xml version="1.0" encoding="utf-8"?>
<!-- Generator: Adobe Illustrator 24.2.1, SVG Export Plug-In . SVG Version: 6.00 Build 0)  -->
<svg version="1.1" id="Capa_1" xmlns="http://www.w3.org/2000/svg" xmlns:xlink="http://www.w3.org/1999/xlink" x="0px" y="0px"
	 viewBox="0 0 700 700" style="enable-background:new 0 0 700 700;" xml:space="preserve">
<style type="text/css">
	.st0{fill:#FFFFFF;}
</style>
<path class="st0" d="M282.8,89.6l-28,56h-95.2c-21.7,0-39.2,17.5-39.2,39.2v246.4c0,21.7,17.5,39.2,39.2,39.2h380.8
	c21.7,0,39.2-17.5,39.2-39.2V184.8c0-21.7-17.5-39.2-39.2-39.2h-95.2l-28-56L282.8,89.6z M350,190.4c64.8,0,117.6,52.9,117.6,117.6
	S414.7,425.6,350,425.6S232.4,372.8,232.4,308S285.3,190.4,350,190.4z M350,224c-46.6,0-84,37.4-84,84s37.4,84,84,84s84-37.4,84-84
	S396.6,224,350,224L350,224z"/>
</svg>
