<?xml version="1.0" encoding="utf-8"?>
<!-- Generator: Adobe Illustrator 24.2.1, SVG Export Plug-In . SVG Version: 6.00 Build 0)  -->
<svg version="1.1" id="Capa_1" xmlns="http://www.w3.org/2000/svg" xmlns:xlink="http://www.w3.org/1999/xlink" x="0px" y="0px"
	 viewBox="0 0 700 700" style="enable-background:new 0 0 700 700;" xml:space="preserve">
<style type="text/css">
	.st0{fill:#FFFFFF;}
</style>
<g>
	<path class="st0" d="M268.3,58.3h-105c-19.3,0-35,15.7-35,35V140c0,19.3,15.7,35,35,35H175v315c0,15.5,6.1,30.3,17.1,41.3
		c10.9,10.9,25.8,17.1,41.3,17.1h233.3c15.5,0,30.3-6.1,41.3-17.1c10.9-10.9,17.1-25.8,17.1-41.3V175h11.7c19.3,0,35-15.7,35-35
		V93.3c0-19.3-15.7-35-35-35h-105V46.7c0-19.3-15.7-35-35-35h-93.3c-19.3,0-35,15.7-35,35L268.3,58.3z M501.7,175v315
		c0,9.3-3.7,18.2-10.3,24.7c-6.6,6.6-15.5,10.3-24.7,10.3H233.3c-9.3,0-18.2-3.7-24.7-10.3c-6.6-6.6-10.3-15.5-10.3-24.7V175
		L501.7,175z M548.3,93.3V140c0,6.4-5.2,11.7-11.7,11.7H163.3c-6.4,0-11.7-5.2-11.7-11.7V93.3c0-6.4,5.2-11.7,11.7-11.7h373.3
		C543.1,81.7,548.3,86.9,548.3,93.3z M408.3,46.7v11.7H291.7V46.7c0-6.4,5.2-11.7,11.7-11.7h93.3C403.1,35,408.3,40.2,408.3,46.7
		L408.3,46.7z"/>
	<path class="st0" d="M338.3,256.7v186.7c0,6.4,5.2,11.7,11.7,11.7s11.7-5.2,11.7-11.7V256.7c0-6.4-5.2-11.7-11.7-11.7
		S338.3,250.2,338.3,256.7z"/>
	<path class="st0" d="M408.3,256.7v186.7c0,6.4,5.2,11.7,11.7,11.7s11.7-5.2,11.7-11.7V256.7c0-6.4-5.2-11.7-11.7-11.7
		S408.3,250.2,408.3,256.7z"/>
	<path class="st0" d="M268.3,256.7v186.7c0,6.4,5.2,11.7,11.7,11.7s11.7-5.2,11.7-11.7V256.7c0-6.4-5.2-11.7-11.7-11.7
		S268.3,250.2,268.3,256.7z"/>
</g>
</svg>
