<?xml version="1.0" encoding="utf-8"?>
<!-- Generator: Adobe Illustrator 24.2.1, SVG Export Plug-In . SVG Version: 6.00 Build 0)  -->
<svg version="1.1" id="Capa_1" xmlns="http://www.w3.org/2000/svg" xmlns:xlink="http://www.w3.org/1999/xlink" x="0px" y="0px"
	 viewBox="0 0 700 700" style="enable-background:new 0 0 700 700;" xml:space="preserve">
<style type="text/css">
	.st0{fill:#FFFFFF;}
</style>
<path class="st0" d="M438.4,365.2h8.4c6.2,0,8.3,4,4.6,9l-48.4,66c-3.6,4.9-9.5,5-13.2,0l-48.4-66c-3.6-4.9-1.6-9,4.6-9h8.4
	c6.2,0,11.2-5,11.2-11.2V236.4c0-6.2,5-11.2,11.2-11.2h39.3c6.1,0,11.2,5,11.2,11.2V354C427.2,360.2,432.2,365.2,438.4,365.2
	L438.4,365.2z M259.2,194.8h-8.4c-6.2,0-8.3-4-4.6-9l48.4-66c3.6-4.9,9.5-5,13.2,0l48.4,66c3.6,4.9,1.6,9-4.6,9h-8.4
	c-6.2,0-11.2,5-11.2,11.2v117.6c0,6.2-5,11.2-11.2,11.2h-39.3c-6.1,0-11.2-5-11.2-11.2V206.1C270.4,199.8,265.4,194.8,259.2,194.8
	L259.2,194.8z"/>
</svg>
