<svg id="Capa_1" data-name="Capa 1" xmlns="http://www.w3.org/2000/svg" viewBox="0 0 406.89 406.89"><defs><style>.cls-1{fill:aqua;}.cls-2{fill:#4a4a49;}</style></defs><rect class="cls-1" width="406.89" height="406.89"/><path class="cls-2" d="M420.91,260.28a50.13,50.13,0,0,0-9.56-7.76q-14.64-9.11-35.26-9.11a80,80,0,0,0-40,10.31,75.31,75.31,0,0,0-28.83,29q-10.61,18.68-10.61,44.67,0,25.69,10.61,44.37a75.41,75.41,0,0,0,28.83,29,80,80,0,0,0,40,10.3q21.81,0,36.3-9a47.91,47.91,0,0,0,11.21-9.69v16h54.08V186.64H420.91Zm-3.59,87.86a31.35,31.35,0,0,1-12.1,13.29A33.22,33.22,0,0,1,388,365.92a33.82,33.82,0,0,1-17.48-4.49,31.41,31.41,0,0,1-12.1-13.29Q354,339.32,354,327.37q0-12.84,4.48-21.21a32.1,32.1,0,0,1,12.1-12.85A33.82,33.82,0,0,1,388,288.83a33.21,33.21,0,0,1,17.18,4.48,32,32,0,0,1,12.1,12.85q4.49,8.37,4.49,21.21Q421.81,339.32,417.32,348.14Z" transform="translate(-217.47 -96.62)"/><rect class="cls-2" x="272.76" y="149.47" width="56.77" height="162.25"/></svg>