<svg id="Capa_1" data-name="Capa 1" xmlns="http://www.w3.org/2000/svg" viewBox="0 0 565.83 139.64"><defs><style>.cls-1{fill:#4a4a49;}.cls-2{fill:aqua;}</style></defs><path class="cls-1" d="M217.58,272.77a31,31,0,0,0-6-4.83q-9.1-5.67-21.94-5.67a49.75,49.75,0,0,0-24.91,6.41,46.93,46.93,0,0,0-17.95,18q-6.6,11.63-6.6,27.8,0,16,6.6,27.61a46.77,46.77,0,0,0,17.95,18,49.65,49.65,0,0,0,24.91,6.42q13.58,0,22.59-5.58a29.45,29.45,0,0,0,7-6v9.94h33.66v-138H217.58Zm-2.23,54.67a19.52,19.52,0,0,1-7.53,8.27,20.69,20.69,0,0,1-10.69,2.79,21.05,21.05,0,0,1-10.88-2.79,19.52,19.52,0,0,1-7.53-8.27,28.13,28.13,0,0,1-2.79-12.92q0-8,2.79-13.2a20,20,0,0,1,7.53-8,21.05,21.05,0,0,1,10.88-2.79,20.69,20.69,0,0,1,10.69,2.79,20,20,0,0,1,7.53,8q2.79,5.21,2.79,13.2A28.13,28.13,0,0,1,215.35,327.44Z" transform="translate(-140.23 -226.94)"/><rect class="cls-1" x="120.49" y="37" width="35.33" height="100.96"/><polygon class="cls-1" points="243.76 37 218.32 98.89 194.11 37 157.86 37 199.32 137.96 235.95 137.96 277.23 37 243.76 37"/><path class="cls-1" d="M489,268.5a58.59,58.59,0,0,0-27.06-6.23A59.73,59.73,0,0,0,433.35,269a50.24,50.24,0,0,0-19.7,18.5,51.13,51.13,0,0,0-7.16,27.06,49.42,49.42,0,0,0,7.34,26.68,51,51,0,0,0,20.64,18.59q13.29,6.79,31.33,6.79,14.31,0,24.91-4.18a46.3,46.3,0,0,0,17.67-12L490,330.88a38.59,38.59,0,0,1-10.41,6.6,33.77,33.77,0,0,1-12.83,2.14A30.47,30.47,0,0,1,453,336.74a20.34,20.34,0,0,1-8.83-8.28,21.88,21.88,0,0,1-2.06-5h73.18c.12-1.36.25-2.85.37-4.46s.19-3,.19-4.28q0-16.72-7.35-28.35A49.19,49.19,0,0,0,489,268.5Zm-38,21.85a22.34,22.34,0,0,1,11.35-2.79,20.93,20.93,0,0,1,11,2.79,19.75,19.75,0,0,1,7.34,7.9,21.53,21.53,0,0,1,2.17,6.6H441.51a24.15,24.15,0,0,1,2.07-6.6A18.11,18.11,0,0,1,450.92,290.35Z" transform="translate(-140.23 -226.94)"/><path class="cls-1" d="M662.93,263.68c-9.55,0-21.18.33-27.8,4.17a32.84,32.84,0,0,0-9.39,8.14V263.76l-33.94.18h0c-9.53,0-20.92.26-27.53,4.09a33.11,33.11,0,0,0-9.39,8.14V263.94H521v101h35.33v-46.3q0-13.2,6.69-19.06c4.47-3.9,10.31-5.38,17.48-5.86,5.14-.34,9.52-.37,11.29-.34l.07,71.38h35.31v-46.3q0-13.2,6.7-19.06c4.46-3.9,10.32-5.13,17.47-5.86,1.76-.18,9.88-.14,11.54-.16Z" transform="translate(-140.23 -226.94)"/><circle class="cls-2" cx="684.5" cy="343.14" r="21.57" transform="translate(-200.76 -60.5) rotate(-13.28)"/></svg>